<svg width="33" height="43" viewBox="0 0 33 43" fill="none" xmlns="http://www.w3.org/2000/svg">
<path d="M8.21899 8.16072C8.21899 3.85292 11.7112 0.360718 16.019 0.360718C20.3268 0.360718 23.819 3.85292 23.819 8.16072C23.819 12.4685 20.3268 15.9607 16.019 15.9607C11.7112 15.9607 8.21899 12.4685 8.21899 8.16072Z" fill="#F4F5F9"/>
<path fill-rule="evenodd" clip-rule="evenodd" d="M9.41899 8.76072C9.41899 12.6862 12.3739 15.8684 16.019 15.8684C19.6641 15.8684 22.619 12.6862 22.619 8.76072C22.619 4.83522 19.6641 1.65302 16.019 1.65302C12.3739 1.65302 9.41899 4.83522 9.41899 8.76072ZM16.019 0.360718C11.7112 0.360718 8.21899 4.12152 8.21899 8.76072C8.21899 13.3999 11.7112 17.1607 16.019 17.1607C20.3268 17.1607 23.819 13.3999 23.819 8.76072C23.819 4.12152 20.3268 0.360718 16.019 0.360718Z" fill="#566DFB" />
<path d="M0.847757 14.583C0.943357 12.003 3.06266 9.96069 5.64446 9.96069H26.3935C28.9753 9.96069 31.0946 12.003 31.1902 14.583L32.0346 37.383C32.1353 40.1018 29.9586 42.3607 27.2379 42.3607H4.80006C2.07936 42.3607 -0.0973415 40.1018 0.00335847 37.383L0.847757 14.583Z" fill="#F4F5F9"/>
<path fill-rule="evenodd" clip-rule="evenodd" d="M26.3935 11.1607H5.64446C3.70806 11.1607 2.11856 12.6924 2.04696 14.6275L1.20246 37.4275C1.12696 39.4665 2.75956 41.1607 4.80006 41.1607H27.2379C29.2784 41.1607 30.911 39.4665 30.8355 37.4274L29.991 14.6275C29.9193 12.6924 28.3299 11.1607 26.3935 11.1607ZM5.64446 9.96069C3.06266 9.96069 0.943357 12.003 0.847757 14.583L0.00335847 37.383C-0.0973415 40.1018 2.07936 42.3607 4.80006 42.3607H27.2379C29.9586 42.3607 32.1353 40.1018 32.0346 37.383L31.1902 14.583C31.0946 12.003 28.9753 9.96069 26.3935 9.96069H5.64446Z" fill="#566DFB"/>
</svg>
