<svg width="119" height="38" viewBox="0 0 119 38" fill="none" xmlns="http://www.w3.org/2000/svg">
<path d="M46.4933 28.4923L48.3396 19.0129H51.977C52.5281 19.0129 53.0241 19.0956 53.4099 19.2885C53.8508 19.509 54.1815 19.8121 54.4295 20.2254C54.6775 20.6388 54.7877 21.1348 54.7877 21.6859C54.7877 22.485 54.5948 23.1739 54.1815 23.8353C53.7957 24.4691 53.2721 24.9375 52.6108 25.2406C52.1699 25.4611 51.6739 25.5438 51.1503 25.5438H49.3867L48.808 28.4923H46.4933ZM49.7725 23.5597H50.9023C51.233 23.5597 51.481 23.5046 51.6739 23.3668C52.1699 23.0361 52.3903 22.5677 52.3903 21.9063C52.3903 21.6308 52.3076 21.4103 52.1699 21.245C52.0045 21.0797 51.7565 20.997 51.4534 20.997H50.2685L49.7725 23.5597Z" fill="#FEFEFE"/>
<path d="M54.6499 28.4923L56.4962 19.0129H60.106C60.6847 19.0129 61.1532 19.0956 61.539 19.2885C62.0074 19.509 62.3381 19.8121 62.5861 20.2254C62.8065 20.6388 62.9443 21.1348 62.9443 21.6859C62.9443 22.485 62.7239 23.1739 62.3381 23.8353C61.9247 24.4691 61.4012 24.9375 60.7674 25.2406C60.2989 25.4611 59.8305 25.5438 59.3069 25.5438H57.5433L56.9646 28.4923H54.6499ZM57.9291 23.5597H59.0313C59.362 23.5597 59.6376 23.5046 59.8305 23.3668C60.2989 23.0361 60.5469 22.5677 60.5469 21.9063C60.5469 21.6308 60.4643 21.4103 60.2989 21.245C60.1336 21.0797 59.8856 20.997 59.5825 20.997H58.4251L57.9291 23.5597Z" fill="#FEFEFE"/>
<path d="M62.7239 28.4923L64.5701 19.0129H66.8849L65.4244 26.5082H69.3098L68.8965 28.4923H62.7239Z" fill="#FEFEFE"/>
<path d="M70.0263 28.4923L74.9588 19.0129H77.6318L78.9545 28.4923H76.6398L76.4469 26.5082H73.4708L72.5063 28.4923H70.0263ZM74.3802 24.6344H76.2815L75.9784 21.3277C75.3171 22.6779 74.9588 23.4219 74.3802 24.6344Z" fill="#FEFEFE"/>
<path d="M80.0843 28.4923L81.9306 19.0129H84.1626L85.9262 23.4219L86.312 24.3864L86.4222 24.662C86.808 22.6779 87.1387 20.9694 87.5245 19.0129H89.8392L87.9929 28.4923H85.7609C84.9893 26.5909 84.2453 24.7171 83.5013 22.8157C83.1155 24.7722 82.7848 26.5358 82.399 28.4923H80.0843Z" fill="#FEFEFE"/>
<path d="M90.0045 25.2958C90.473 25.7091 90.9966 25.9571 91.6028 26.2051C91.9886 26.3429 92.4019 26.4256 92.7877 26.4256C93.0633 26.4256 93.3113 26.3429 93.5317 26.2327C93.7797 26.0949 93.89 25.902 93.89 25.6264C93.89 25.2406 93.2837 24.91 92.9806 24.7722C92.7326 24.662 92.457 24.5242 92.1815 24.3313C91.8784 24.1384 91.6028 23.9731 91.3548 23.7526C91.1068 23.5597 90.8863 23.2842 90.721 22.9535C90.5557 22.6228 90.4454 22.2646 90.4454 21.8788C90.4454 20.997 90.8037 20.3081 91.4926 19.7845C92.1815 19.2609 92.953 19.0129 93.8624 19.0129C95.1575 19.0129 96.0118 19.3436 96.7007 19.8121L96.2873 21.989C95.9291 21.6859 95.5433 21.493 94.9095 21.2725C94.5513 21.1348 94.1931 21.0797 93.8348 21.0797C93.5593 21.0797 93.3113 21.1348 93.0633 21.2725C92.8153 21.4103 92.705 21.6032 92.705 21.8788C92.705 22.0166 92.7877 22.1819 92.953 22.3197C93.1459 22.4575 93.3388 22.5952 93.6144 22.7055C93.8624 22.8433 94.138 22.981 94.4411 23.1464C94.7166 23.3393 94.9922 23.5322 95.2678 23.725C95.5158 23.9179 95.7362 24.1935 95.9016 24.5242C96.0669 24.8549 96.1496 25.2131 96.1496 25.6264C96.1496 26.398 95.8464 27.0869 95.1851 27.638C94.5237 28.2167 93.7246 28.4923 92.7326 28.4923C92.0988 28.4923 91.4375 28.382 90.8037 28.1616C90.3352 27.9963 89.9219 27.7483 89.5912 27.4727C89.5912 27.4727 89.5912 27.4727 89.5912 27.4451L90.0045 25.2958Z" fill="#FEFEFE"/>
<path d="M37.0691 20.1152C34.0654 14.2733 27.3417 4.57352 14.3076 0.329868C11.3591 -0.607042 8.27283 0.495206 6.5919 3.08549C3.03715 8.56917 -2.00563 19.2334 0.832657 32.6257C1.49401 35.6569 4.00162 37.7787 7.08791 37.9441C13.5912 38.2747 25.3852 37.3378 35.5535 28.1616C37.8682 26.0949 38.4744 22.8433 37.0691 20.1152Z" fill="#FEFEFE" fill-opacity="0.301961"/>
<path d="M50.2685 14.7141L49.9102 16.6431H49.0836L50.2409 10.6909H50.9849L50.9298 11.0492L50.8472 11.3798C51.0125 11.1594 51.2329 10.9665 51.4809 10.8287C51.729 10.6634 52.0321 10.5807 52.3352 10.5807C52.8312 10.5807 53.217 10.746 53.5201 11.0767C53.7957 11.3798 53.9334 11.7932 53.9334 12.3443C53.9334 13.1159 53.713 13.7772 53.2445 14.2732C52.7761 14.7968 52.225 15.0448 51.6187 15.0448C51.3432 15.0448 51.0676 14.9897 50.8472 14.8519C50.6267 14.7417 50.4614 14.5488 50.3511 14.3008H50.3236C50.3236 14.4386 50.296 14.5488 50.2685 14.7141ZM50.5716 13.2537C50.5716 13.5843 50.6543 13.8323 50.8196 14.0252C50.9849 14.2457 51.2329 14.3559 51.5361 14.3559C51.9218 14.3559 52.2801 14.163 52.6108 13.8048C52.9414 13.4465 53.1068 12.9781 53.1068 12.3994C53.1068 12.0687 53.0241 11.7932 52.8588 11.6003C52.6659 11.4074 52.4454 11.2972 52.1423 11.2972C51.7014 11.2972 51.3432 11.5176 51.04 11.9034C50.7369 12.2892 50.5716 12.7576 50.5716 13.2537ZM54.3192 13.9701C54.3192 13.6946 54.4019 13.4741 54.5121 13.2812C54.6499 13.0608 54.7877 12.923 54.9806 12.7852C55.1735 12.675 55.3939 12.5648 55.6695 12.5096C55.9175 12.427 56.1655 12.3719 56.4135 12.3443C56.6615 12.3167 56.882 12.2892 57.1575 12.2892H57.378C57.378 12.179 57.4055 12.0687 57.4055 11.931C57.4055 11.4901 57.13 11.2972 56.634 11.2972C56.1931 11.2972 55.7797 11.4074 55.3664 11.683L55.1459 11.0492C55.3113 10.9114 55.5593 10.8287 55.8348 10.7185C56.1379 10.6358 56.4411 10.5807 56.7442 10.5807C57.1851 10.5807 57.5433 10.6909 57.8189 10.8838C58.0944 11.1043 58.2322 11.4074 58.2322 11.8483C58.2322 11.9585 58.2047 12.0963 58.1771 12.2892L57.6811 14.9621H56.9095L56.9922 14.5212L57.0749 14.1906H57.0473C56.9371 14.3835 56.7442 14.5764 56.4962 14.7692C56.2206 14.9621 55.9175 15.0448 55.5868 15.0448C55.2286 15.0448 54.9255 14.9621 54.705 14.7692C54.457 14.5488 54.3192 14.3008 54.3192 13.9701ZM55.1459 13.8323C55.1459 13.9977 55.201 14.1355 55.3113 14.2457C55.4215 14.3559 55.5868 14.411 55.8348 14.411C56.1379 14.411 56.4411 14.2732 56.7166 13.9701C56.9922 13.6946 57.1575 13.3914 57.2402 13.0332L57.2677 12.8954H57.0473C55.7797 12.8954 55.1459 13.1985 55.1459 13.8323ZM58.5904 14.4386L58.9762 13.915C59.114 14.0528 59.2518 14.163 59.4447 14.2457C59.6376 14.3559 59.858 14.3835 60.0785 14.3835C60.3265 14.3835 60.5745 14.3283 60.7674 14.163C60.9603 14.0252 61.0705 13.8048 61.0705 13.5568C61.0705 13.2261 60.8225 13.0608 60.3265 13.0608H59.8029L59.9131 12.4545H60.3816C60.6296 12.4545 60.8501 12.3994 61.0429 12.2616C61.2083 12.1514 61.3185 11.9585 61.3185 11.7105C61.3185 11.4074 61.0705 11.2421 60.6296 11.2421C60.2714 11.2421 59.9131 11.3523 59.5549 11.6003L59.3069 11.0492C59.7203 10.746 60.2163 10.5807 60.7949 10.5807C61.2083 10.5807 61.539 10.6909 61.7594 10.8563C62.0074 11.0492 62.1452 11.2972 62.1452 11.6003C62.1452 11.8758 62.0625 12.0963 61.9247 12.2892C61.787 12.4821 61.5665 12.6474 61.3185 12.7301V12.7576C61.7043 12.8954 61.8972 13.171 61.8972 13.6119C61.8972 14.0528 61.7319 14.3835 61.3736 14.659C61.0429 14.907 60.602 15.0448 60.1336 15.0448C59.8305 15.0448 59.5274 14.9897 59.2518 14.8795C58.9762 14.7692 58.7558 14.6315 58.5904 14.4386ZM63.4954 14.7141L63.1097 16.6431H62.3105L63.4679 10.6909H64.2119L64.1568 11.0492L64.0466 11.3798H64.0741C64.2395 11.1594 64.4324 10.9665 64.7079 10.8287C64.9559 10.6634 65.2315 10.5807 65.5622 10.5807C66.0582 10.5807 66.444 10.746 66.7195 11.0767C67.0226 11.3798 67.1604 11.7932 67.1604 12.3443C67.1604 13.1159 66.9124 13.7772 66.444 14.2732C66.0031 14.7968 65.4519 15.0448 64.8457 15.0448C64.5426 15.0448 64.2946 14.9897 64.0741 14.8519C63.8261 14.7417 63.6608 14.5488 63.5506 14.3008C63.5506 14.4386 63.523 14.5488 63.4954 14.7141ZM63.7986 13.2537C63.7986 13.5843 63.8812 13.8323 64.0466 14.0252C64.2119 14.2457 64.4324 14.3559 64.763 14.3559C65.1488 14.3559 65.5071 14.163 65.8377 13.8048C66.1684 13.4465 66.3337 12.9781 66.3337 12.3994C66.3337 12.0687 66.2235 11.7932 66.0582 11.6003C65.8928 11.4074 65.6448 11.2972 65.3417 11.2972C64.9284 11.2972 64.5701 11.5176 64.267 11.9034C63.9639 12.2892 63.7986 12.7576 63.7986 13.2537ZM67.5462 13.9701C67.5462 13.6946 67.6013 13.4741 67.7391 13.2812C67.8493 13.0608 68.0147 12.923 68.2076 12.7852C68.4005 12.675 68.6209 12.5648 68.8689 12.5096C69.1445 12.427 69.3925 12.3719 69.6405 12.3443C69.8609 12.3167 70.1089 12.2892 70.3569 12.2892H70.5774C70.6049 12.179 70.6325 12.0687 70.6325 11.931C70.6325 11.4901 70.3569 11.2972 69.8334 11.2972C69.42 11.2972 69.0067 11.4074 68.5658 11.683L68.3453 11.0492C68.5382 10.9114 68.7587 10.8287 69.0618 10.7185C69.3649 10.6358 69.668 10.5807 69.9712 10.5807C70.4121 10.5807 70.7703 10.6909 71.0183 10.8838C71.2939 11.1043 71.4316 11.4074 71.4316 11.8483C71.4316 11.9585 71.4316 12.0963 71.4041 12.2892L70.8805 14.9621H70.1365L70.2192 14.5212L70.3018 14.1906H70.2743C70.164 14.3835 69.9712 14.5764 69.6956 14.7692C69.4476 14.9621 69.1445 15.0448 68.8138 15.0448C68.4556 15.0448 68.1524 14.9621 67.9044 14.7692C67.684 14.5488 67.5462 14.3008 67.5462 13.9701ZM68.3453 13.8323C68.3453 13.9977 68.428 14.1355 68.5382 14.2457C68.6485 14.3559 68.8138 14.411 69.0342 14.411C69.3649 14.411 69.668 14.2732 69.9436 13.9701C70.1916 13.6946 70.3845 13.3914 70.4396 13.0332L70.4672 12.8954H70.2743C69.0067 12.8954 68.3453 13.1985 68.3453 13.8323ZM72.3134 13.1159C72.3134 12.7301 72.3685 12.3443 72.4788 11.931C72.5614 11.5176 72.7268 11.1594 72.9472 10.8563C73.1401 10.5256 73.3881 10.25 73.7188 10.0296C74.0219 9.80913 74.4077 9.58868 74.8762 9.42334L76.5295 8.78955L76.6949 9.4509L74.9037 10.1398C74.4353 10.3327 74.077 10.5531 73.829 10.8012C73.581 11.0767 73.4157 11.3798 73.3055 11.7932C73.7464 11.3247 74.2424 11.0767 74.8486 11.0767C75.3171 11.0767 75.7028 11.2145 76.006 11.4901C76.2815 11.7932 76.4193 12.179 76.4193 12.6474C76.4193 13.2812 76.1989 13.8599 75.758 14.3283C75.2895 14.8244 74.7384 15.0448 74.0219 15.0448C73.4432 15.0448 73.0299 14.8795 72.7268 14.5212C72.4512 14.1906 72.3134 13.7221 72.3134 13.1159ZM73.1126 13.3363C73.1126 13.667 73.1952 13.915 73.3881 14.0803C73.581 14.2732 73.8015 14.3559 74.1046 14.3559C74.5179 14.3559 74.8762 14.1906 75.1517 13.8874C75.4548 13.5568 75.5926 13.171 75.5926 12.7576C75.5926 12.427 75.51 12.179 75.3171 12.0136C75.1517 11.8207 74.9037 11.7381 74.6282 11.7381C74.2148 11.7381 73.8841 11.9034 73.581 12.2065C73.2779 12.5372 73.1126 12.923 73.1126 13.3363ZM77.1358 13.171C77.1358 12.4545 77.4113 11.8483 77.9349 11.3523C78.4585 10.8563 79.0647 10.5807 79.7536 10.5807C80.3598 10.5807 80.8559 10.7736 81.2141 11.1043C81.5999 11.4625 81.7928 11.9034 81.7928 12.4545C81.7928 13.171 81.5172 13.7772 80.9661 14.3008C80.4425 14.7968 79.8363 15.0448 79.1474 15.0448C78.5687 15.0448 78.0727 14.8795 77.6869 14.5212C77.3287 14.1906 77.1358 13.7497 77.1358 13.171ZM77.9625 13.1434C77.9625 13.5017 78.0727 13.8048 78.2931 14.0252C78.5136 14.2457 78.8167 14.3559 79.1749 14.3559C79.6158 14.3559 80.0292 14.163 80.3874 13.8048C80.7732 13.4465 80.9385 13.0056 80.9385 12.4821C80.9385 12.1514 80.8283 11.8483 80.6078 11.6278C80.3874 11.4074 80.1118 11.2972 79.7536 11.2972C79.2852 11.2972 78.8718 11.4901 78.5136 11.8483C78.1553 12.2065 77.9625 12.6199 77.9625 13.1434ZM83.143 14.9621L83.8319 11.3798H82.3439L82.4817 10.6909H86.2569L86.1191 11.3798H84.6586L83.9697 14.9621H83.143ZM86.2293 14.9621L87.056 10.6909H87.8827L87.552 12.3994H88.1307L89.5912 10.6909H90.5556L88.7369 12.8128V12.8403L89.8943 14.9621H88.9849L88.0205 13.1159H87.4142L87.056 14.9621H86.2293ZM90.4179 13.9701C90.4179 13.6946 90.473 13.4741 90.6107 13.2812C90.721 13.0608 90.8863 12.923 91.0792 12.7852C91.2721 12.675 91.4925 12.5648 91.7406 12.5096C92.0161 12.427 92.2641 12.3719 92.5121 12.3443C92.7326 12.3167 92.9806 12.2892 93.2286 12.2892H93.449C93.4766 12.179 93.5042 12.0687 93.5042 11.931C93.5042 11.4901 93.2286 11.2972 92.7326 11.2972C92.2917 11.2972 91.8783 11.4074 91.4374 11.683L91.2445 11.0492C91.4099 10.9114 91.6303 10.8287 91.9334 10.7185C92.2366 10.6358 92.5397 10.5807 92.8428 10.5807C93.2837 10.5807 93.6419 10.6909 93.9175 10.8838C94.1931 11.1043 94.3308 11.4074 94.3308 11.8483C94.3308 11.9585 94.3033 12.0963 94.2757 12.2892L93.7522 14.9621H93.0081L93.0908 14.5212L93.1735 14.1906H93.1459C93.0357 14.3835 92.8428 14.5764 92.5672 14.7692C92.3192 14.9621 92.0161 15.0448 91.6854 15.0448C91.3272 15.0448 91.0241 14.9621 90.7761 14.7692C90.5556 14.5488 90.4179 14.3008 90.4179 13.9701ZM91.2445 13.8323C91.2445 13.9977 91.2997 14.1355 91.4099 14.2457C91.5201 14.3559 91.6854 14.411 91.9334 14.411C92.2366 14.411 92.5397 14.2732 92.8152 13.9701C93.0633 13.6946 93.2561 13.3914 93.3388 13.0332V12.8954H93.1459C91.8783 12.8954 91.2445 13.1985 91.2445 13.8323ZM97.1691 13.1985C97.1691 12.4821 97.4447 11.8758 97.9683 11.3523C98.4918 10.8563 99.0981 10.5807 99.8145 10.5807C100.503 10.5807 101.027 10.8012 101.413 11.2145L100.944 11.7381C100.834 11.6003 100.669 11.4901 100.448 11.4074C100.255 11.3523 100.035 11.2972 99.8421 11.2972C99.3461 11.2972 98.9327 11.4901 98.5469 11.8483C98.1887 12.2065 98.0234 12.6474 98.0234 13.1434C98.0234 13.5017 98.1336 13.8048 98.354 14.0252C98.5745 14.2457 98.8776 14.3559 99.2634 14.3559C99.7319 14.3559 100.228 14.163 100.669 13.7772L100.917 14.411C100.696 14.6039 100.448 14.7692 100.118 14.8795C99.8145 14.9897 99.4838 15.0448 99.1807 15.0448C98.5745 15.0448 98.0785 14.8795 97.7202 14.5488C97.362 14.1906 97.1691 13.7497 97.1691 13.1985ZM101.495 13.9701C101.495 13.6946 101.551 13.4741 101.688 13.2812C101.799 13.0608 101.964 12.923 102.157 12.7852C102.35 12.675 102.57 12.5648 102.818 12.5096C103.066 12.427 103.314 12.3719 103.562 12.3443C103.81 12.3167 104.058 12.2892 104.306 12.2892H104.527C104.554 12.179 104.554 12.0687 104.554 11.931C104.554 11.4901 104.306 11.2972 103.783 11.2972C103.369 11.2972 102.928 11.4074 102.515 11.683L102.295 11.0492C102.46 10.9114 102.708 10.8287 103.011 10.7185C103.314 10.6358 103.617 10.5807 103.893 10.5807C104.334 10.5807 104.692 10.6909 104.968 10.8838C105.243 11.1043 105.381 11.4074 105.381 11.8483C105.381 11.9585 105.381 12.0963 105.353 12.2892L104.83 14.9621H104.058L104.141 14.5212L104.224 14.1906C104.086 14.3835 103.92 14.5764 103.645 14.7692C103.369 14.9621 103.094 15.0448 102.735 15.0448C102.405 15.0448 102.102 14.9621 101.854 14.7692C101.606 14.5488 101.495 14.3008 101.495 13.9701ZM102.295 13.8323C102.295 13.9977 102.35 14.1355 102.46 14.2457C102.598 14.3559 102.763 14.411 102.983 14.411C103.314 14.411 103.59 14.2732 103.865 13.9701C104.141 13.6946 104.306 13.3914 104.389 13.0332L104.416 12.8954H104.196C102.928 12.8954 102.295 13.1985 102.295 13.8323ZM108.963 10.1949C108.633 10.1949 108.357 10.1122 108.164 9.94691C107.944 9.78157 107.833 9.58868 107.833 9.31312C107.833 9.23045 107.861 9.12023 107.888 9.01H108.522C108.522 9.06511 108.495 9.14778 108.495 9.23045C108.495 9.36823 108.55 9.47846 108.633 9.56112C108.743 9.64379 108.853 9.67135 108.991 9.67135C109.184 9.67135 109.321 9.61624 109.459 9.50601C109.597 9.42334 109.68 9.23045 109.707 9.01H110.369C110.313 9.42334 110.148 9.72646 109.873 9.91935C109.625 10.1122 109.321 10.1949 108.963 10.1949ZM106.042 14.9621L106.869 10.6909H107.64L107.144 13.1985L107.007 13.7772H107.034C107.2 13.5292 107.365 13.3363 107.53 13.171L109.845 10.6909H110.644L109.817 14.9621H109.046L109.514 12.4545L109.652 11.8758C109.459 12.0963 109.294 12.2892 109.156 12.4821L106.814 14.9621H106.042ZM112.077 14.9621L112.766 11.3798H111.305L111.443 10.6909H115.218L115.081 11.3798H113.593L112.904 14.9621H112.077ZM114.998 13.9701C114.998 13.6946 115.081 13.4741 115.191 13.2812C115.301 13.0608 115.466 12.923 115.659 12.7852C115.852 12.675 116.073 12.5648 116.348 12.5096C116.596 12.427 116.844 12.3719 117.092 12.3443C117.313 12.3167 117.561 12.2892 117.836 12.2892H118.029C118.057 12.179 118.084 12.0687 118.084 11.931C118.084 11.4901 117.809 11.2972 117.313 11.2972C116.872 11.2972 116.458 11.4074 116.045 11.683L115.825 11.0492C115.99 10.9114 116.21 10.8287 116.514 10.7185C116.817 10.6358 117.12 10.5807 117.423 10.5807C117.864 10.5807 118.222 10.6909 118.498 10.8838C118.773 11.1043 118.911 11.4074 118.911 11.8483C118.911 11.9585 118.883 12.0963 118.856 12.2892L118.332 14.9621H117.588L117.671 14.5212L117.754 14.1906H117.726C117.616 14.3835 117.423 14.5764 117.147 14.7692C116.899 14.9621 116.596 15.0448 116.266 15.0448C115.907 15.0448 115.604 14.9621 115.356 14.7692C115.136 14.5488 114.998 14.3008 114.998 13.9701ZM115.825 13.8323C115.825 13.9977 115.88 14.1355 115.99 14.2457C116.1 14.3559 116.266 14.411 116.514 14.411C116.817 14.411 117.12 14.2732 117.395 13.9701C117.643 13.6946 117.836 13.3914 117.919 13.0332V12.8954H117.726C116.458 12.8954 115.825 13.1985 115.825 13.8323Z" fill="#FEFEFE" fill-opacity="0.501961"/>
<path fill-rule="evenodd" clip-rule="evenodd" d="M12.1858 9.53369L10.5324 28.4924L18.4135 24.9652L12.1858 9.53369Z" fill="#E3E3E3"/>
<path fill-rule="evenodd" clip-rule="evenodd" d="M18.4135 24.9652L27.2866 23.9456L12.1858 9.53369L18.4135 24.9652Z" fill="#FEFEFE"/>
<path d="M96.9487 28.4373L97.3345 26.3154H99.4838L99.0981 28.4373H96.9487ZM100.311 28.4373L102.129 19.0957H105.629C106.152 19.0957 106.621 19.1784 106.979 19.3162C107.916 19.7019 108.384 20.4184 108.384 21.4655C108.384 22.0993 108.219 22.7331 107.916 23.3394C107.585 23.9456 107.089 24.3589 106.428 24.6345V24.6621C106.511 24.7723 106.566 24.9376 106.676 25.2132L107.888 28.4373H105.408L104.361 25.2958H103.231L102.598 28.4373H100.311ZM103.59 23.3394H104.582C104.995 23.3394 105.353 23.2016 105.629 22.9536C105.904 22.7056 106.042 22.3473 106.042 21.9064C106.042 21.6309 105.96 21.4104 105.767 21.2726C105.601 21.1349 105.381 21.0522 105.078 21.0522H104.058L103.59 23.3394ZM108.825 25.7092C108.825 25.4612 108.853 25.2132 108.908 24.9376L110.038 19.0957H112.325L111.168 25.0203C111.14 25.1305 111.14 25.2683 111.14 25.3785C111.14 25.7367 111.25 26.0123 111.498 26.2328C111.746 26.4257 112.077 26.5083 112.518 26.5083C113.014 26.5083 113.427 26.3981 113.786 26.1225C114.116 25.8745 114.337 25.4887 114.419 25.0203L115.577 19.0957H117.864L116.706 25.0754C116.486 26.1501 115.99 27.0043 115.246 27.6381C114.474 28.2719 113.538 28.6026 112.435 28.6026C111.416 28.6026 110.534 28.3546 109.845 27.831C109.156 27.3075 108.825 26.6185 108.825 25.7092Z" fill="#FEFEFE"/>
</svg>
