<svg width="22" height="22" viewBox="0 0 22 22" fill="none" xmlns="http://www.w3.org/2000/svg">
<path d="M21.3886 15.8693L18.563 13.0438C17.7478 12.2286 16.4212 12.2286 15.6061 13.0438L14.3648 14.2851C11.5295 12.8004 9.19955 10.4705 7.71484 7.63522L8.95628 6.39378C9.77142 5.57859 9.77142 4.25211 8.95628 3.43691L6.13077 0.611399C5.31557 -0.2038 3.98909 -0.2038 3.1739 0.611399L0.913472 2.87188C-0.267611 4.05291 -0.304539 6.13494 0.809469 8.73431C1.8137 11.0776 3.65687 13.6581 5.99935 16.0006C8.34184 18.3431 10.9224 20.1863 13.2657 21.1905C14.5255 21.7304 15.6638 22 16.6368 22C17.6715 22 18.5195 21.6952 19.1281 21.0866L21.3885 18.8261C21.7835 18.4312 22.0009 17.9062 22.0009 17.3477C22.001 16.7893 21.7835 16.2642 21.3886 15.8693ZM20.1269 17.5646L17.8665 19.825C17.2545 20.437 15.7974 20.3345 13.9684 19.5507C11.8288 18.6337 9.44668 16.9249 7.26083 14.7391C5.07503 12.5532 3.3662 10.1711 2.4492 8.03156C1.66546 6.20273 1.56282 4.74549 2.17489 4.13348L4.43532 1.87306C4.55496 1.75347 4.74953 1.75347 4.86911 1.87306L7.69462 4.69857C7.81421 4.81815 7.81421 5.01278 7.69462 5.13231L5.55479 7.27219L5.82393 7.84032C7.55173 11.4879 10.5121 14.4483 14.1597 16.1761L14.7278 16.4452L16.8677 14.3054C16.9458 14.2272 17.0371 14.2155 17.0845 14.2155C17.1319 14.2155 17.2232 14.2272 17.3013 14.3053L20.1269 17.1308C20.205 17.2089 20.2167 17.3002 20.2167 17.3477C20.2168 17.3952 20.2051 17.4865 20.1269 17.5646Z" fill="#3A426D"/>
</svg>
