<svg width="28" height="26" viewBox="0 0 28 26" fill="none" xmlns="http://www.w3.org/2000/svg">
  <path d="M11 24.9999C11.6312 24.9999 12.1429 24.4883 12.1429 23.8571C12.1429 23.2259 11.6312 22.7142 11 22.7142C10.3689 22.7142 9.85718 23.2259 9.85718 23.8571C9.85718 24.4883 10.3689 24.9999 11 24.9999Z" stroke="#3A426D" stroke-width="2" stroke-linecap="round" stroke-linejoin="round"/>
  <path d="M23.5715 24.9999C24.2027 24.9999 24.7143 24.4883 24.7143 23.8571C24.7143 23.2259 24.2027 22.7142 23.5715 22.7142C22.9403 22.7142 22.4286 23.2259 22.4286 23.8571C22.4286 24.4883 22.9403 24.9999 23.5715 24.9999Z" stroke="#3A426D" stroke-width="2" stroke-linecap="round" stroke-linejoin="round"/>
  <path d="M1.85718 1H6.42861L9.49146 16.3029C9.59597 16.829 9.88222 17.3017 10.3001 17.6381C10.718 17.9744 11.2408 18.1531 11.7772 18.1429H22.8857C23.4221 18.1531 23.945 17.9744 24.3628 17.6381C24.7807 17.3017 25.067 16.829 25.1715 16.3029L27 6.71429H7.57146" stroke="#3A426D" stroke-width="2" stroke-linecap="round" stroke-linejoin="round"/>
</svg>
