<svg width="25" height="25" viewBox="0 0 25 25" fill="none" xmlns="http://www.w3.org/2000/svg">
<path d="M16.6203 12.9671C17.857 12.0916 18.7831 10.8453 19.2646 9.40855C19.746 7.97182 19.758 6.41916 19.2986 4.9752C18.8392 3.53125 17.9323 2.2709 16.7092 1.37649C15.486 0.482078 14.01 0 12.4948 0C10.9795 0 9.50353 0.482078 8.28039 1.37649C7.05725 2.2709 6.15038 3.53125 5.69099 4.9752C5.2316 6.41916 5.24351 7.97182 5.725 9.40855C6.20649 10.8453 7.13258 12.0916 8.3693 12.9671C5.95758 13.67 3.83855 15.1354 2.32972 17.1438C0.820877 19.1522 0.00347977 21.5955 0 24.1075C0 24.3442 0.0940286 24.5712 0.261401 24.7386C0.428773 24.906 0.655778 25 0.892478 25H24.0969C24.3336 25 24.5606 24.906 24.728 24.7386C24.8953 24.5712 24.9894 24.3442 24.9894 24.1075C24.9859 21.5955 24.1685 19.1523 22.6597 17.1438C21.1509 15.1354 19.0319 13.67 16.6203 12.9671ZM7.13982 7.15045C7.13982 6.09135 7.45388 5.05605 8.04228 4.17544C8.63068 3.29484 9.46699 2.60849 10.4455 2.2032C11.4239 1.7979 12.5006 1.69185 13.5394 1.89847C14.5781 2.10509 15.5323 2.61509 16.2811 3.36399C17.03 4.11288 17.54 5.06702 17.7467 6.10576C17.9533 7.14451 17.8472 8.22119 17.4419 9.19967C17.0366 10.1781 16.3503 11.0145 15.4697 11.6029C14.5891 12.1913 13.5538 12.5053 12.4947 12.5053C11.075 12.5037 9.71389 11.939 8.71001 10.9351C7.70613 9.93124 7.14144 8.57015 7.13982 7.15045ZM1.82512 23.215C2.05066 20.777 3.1779 18.5109 4.98622 16.8602C6.79455 15.2096 9.15378 14.2931 11.6022 14.2903H13.3872C15.8356 14.2931 18.1948 15.2096 20.0032 16.8602C21.8115 18.5109 22.9387 20.777 23.1643 23.215H1.82512Z" fill="#3A426D"/>
</svg>
