<svg xmlns="http://www.w3.org/2000/svg"><symbol id="basket" viewBox="0 0 28 26"><path d="M11 25a1.143 1.143 0 1 0 0-2.286A1.143 1.143 0 0 0 11 25zM23.572 25a1.143 1.143 0 1 0 0-2.286 1.143 1.143 0 0 0 0 2.286zM1.857 1H6.43L9.49 16.303a2.286 2.286 0 0 0 2.286 1.84h11.109a2.286 2.286 0 0 0 2.286-1.84L27 6.714H7.571" stroke="#3A426D" stroke-width="2" stroke-linecap="round" stroke-linejoin="round"/></symbol><symbol id="facebook-th" viewBox="0 0 49.652 49.652"><path d="M24.826 0C11.137 0 0 11.137 0 24.826c0 13.688 11.137 24.826 24.826 24.826 13.688 0 24.826-11.138 24.826-24.826C49.652 11.137 38.516 0 24.826 0zM31 25.7h-4.039v14.396h-5.985V25.7h-2.845v-5.088h2.845v-3.291c0-2.357 1.12-6.04 6.04-6.04l4.435.017v4.939h-3.219c-.524 0-1.269.262-1.269 1.386v2.99h4.56L31 25.7z"/></symbol><symbol id="icon-phone" viewBox="0 0 22 22"><path d="M21.389 15.87l-2.826-2.826a2.093 2.093 0 0 0-2.957 0l-1.241 1.241a15.793 15.793 0 0 1-6.65-6.65l1.241-1.241a2.093 2.093 0 0 0 0-2.957L6.131.61a2.093 2.093 0 0 0-2.957 0l-2.26 2.26C-.269 4.054-.306 6.136.808 8.735c1.005 2.344 2.848 4.924 5.19 7.267 2.343 2.342 4.923 4.185 7.267 5.19 1.26.54 2.398.809 3.37.809 1.036 0 1.884-.305 2.492-.913l2.26-2.26c.395-.396.613-.92.613-1.48 0-.558-.218-1.083-.612-1.478zm-1.262 1.695l-2.26 2.26c-.613.612-2.07.51-3.899-.274-2.14-.917-4.521-2.626-6.707-4.812-2.186-2.186-3.895-4.568-4.812-6.707-.784-1.83-.886-3.287-.274-3.899l2.26-2.26c.12-.12.315-.12.434 0L7.695 4.7c.12.12.12.314 0 .433l-2.14 2.14.269.568a17.571 17.571 0 0 0 8.336 8.336l.568.27 2.14-2.14a.305.305 0 0 1 .433 0l2.826 2.825a.305.305 0 0 1 0 .434z" fill="#3A426D"/></symbol><symbol id="icon-serch" viewBox="0 0 17 17"><path d="M7.667 14.333A6.667 6.667 0 1 0 7.667 1a6.667 6.667 0 0 0 0 13.333zM16 16l-3.625-3.625" stroke="#3A426D" stroke-width="2" stroke-linecap="round" stroke-linejoin="round"/></symbol><symbol id="icon-user" viewBox="0 0 25 25"><path d="M16.62 12.967a7.14 7.14 0 1 0-8.25 0A11.621 11.621 0 0 0 0 24.107.893.893 0 0 0 .892 25h23.205a.892.892 0 0 0 .892-.892 11.621 11.621 0 0 0-8.369-11.14zM7.14 7.15a5.355 5.355 0 1 1 5.355 5.355A5.36 5.36 0 0 1 7.14 7.15zM1.825 23.215a9.83 9.83 0 0 1 9.777-8.925h1.785a9.83 9.83 0 0 1 9.777 8.925H1.825z" fill="#3A426D"/></symbol><symbol id="instagram-th" viewBox="0 0 89.758 89.758"><path d="M58.255 23.88H31.503c-4.27 0-7.744 3.474-7.744 7.744v26.752c0 4.27 3.474 7.745 7.744 7.745h26.752c4.27 0 7.745-3.474 7.745-7.745V31.624c0-4.27-3.474-7.744-7.745-7.744zM44.879 58.906c-7.667 0-13.905-6.238-13.905-13.906 0-7.667 6.238-13.905 13.905-13.905 7.668 0 13.906 6.238 13.906 13.905 0 7.667-6.239 13.906-13.906 13.906zM59.232 33.97a3.294 3.294 0 0 1-3.291-3.29 3.294 3.294 0 0 1 3.291-3.29 3.294 3.294 0 0 1 3.29 3.29 3.294 3.294 0 0 1-3.29 3.29z"/><path d="M44.879 36.971c-4.426 0-8.03 3.602-8.03 8.028 0 4.428 3.604 8.031 8.03 8.031 4.428 0 8.029-3.603 8.029-8.031 0-4.425-3.602-8.028-8.029-8.028z"/><path d="M44.879 0C20.094 0 0 20.094 0 44.879c0 24.785 20.094 44.879 44.879 44.879 24.785 0 44.879-20.094 44.879-44.879C89.758 20.094 69.664 0 44.879 0zm26.996 58.376c0 7.511-6.109 13.62-13.62 13.62H31.503c-7.51 0-13.62-6.109-13.62-13.62V31.624c0-7.51 6.11-13.62 13.62-13.62h26.752c7.511 0 13.62 6.11 13.62 13.62v26.752z"/></symbol><symbol id="vk-th" viewBox="0 0 97.75 97.75"><path d="M48.875 0C21.883 0 0 21.882 0 48.875S21.883 97.75 48.875 97.75 97.75 75.868 97.75 48.875 75.867 0 48.875 0zm24.792 54.161c2.278 2.225 4.688 4.319 6.733 6.774.906 1.086 1.76 2.209 2.41 3.472.928 1.801.09 3.776-1.522 3.883l-10.013-.002c-2.586.214-4.644-.829-6.379-2.597-1.385-1.409-2.67-2.914-4.004-4.371-.545-.598-1.119-1.161-1.803-1.604-1.365-.888-2.551-.616-3.333.81-.797 1.451-.979 3.059-1.055 4.674-.109 2.361-.821 2.978-3.19 3.089-5.062.237-9.865-.531-14.329-3.083-3.938-2.251-6.986-5.428-9.642-9.025-5.172-7.012-9.133-14.708-12.692-22.625-.801-1.783-.215-2.737 1.752-2.774 3.268-.063 6.536-.055 9.804-.003 1.33.021 2.21.782 2.721 2.037 1.766 4.345 3.931 8.479 6.644 12.313.723 1.021 1.461 2.039 2.512 2.76 1.16.796 2.044.533 2.591-.762.35-.823.501-1.703.577-2.585.26-3.021.291-6.041-.159-9.05-.28-1.883-1.339-3.099-3.216-3.455-.956-.181-.816-.535-.351-1.081.807-.944 1.563-1.528 3.074-1.528l11.313-.002c1.783.35 2.183 1.15 2.425 2.946l.01 12.572c-.021.695.349 2.755 1.597 3.21 1 .33 1.66-.472 2.258-1.105 2.713-2.879 4.646-6.277 6.377-9.794.764-1.551 1.423-3.156 2.063-4.764.476-1.189 1.216-1.774 2.558-1.754l10.894.013c.321 0 .647.003.965.058 1.836.314 2.339 1.104 1.771 2.895-.894 2.814-2.631 5.158-4.329 7.508-1.82 2.516-3.761 4.944-5.563 7.471-1.656 2.31-1.525 3.473.531 5.479z"/></symbol></svg>